# Blender v2.92.0 OBJ File: 'base.blend'
# www.blender.org
mtllib base.mtl
o çƒ.001
v 0.000000 0.000000 -1.000000
v 0.382684 0.000000 -0.923879
v 0.000000 -0.382683 -0.999600
v 0.000000 -0.653684 -0.671224
v 0.707107 0.000000 -0.707107
v 0.653282 -0.382683 -0.653281
v 0.500000 -0.653684 -0.500000
v 0.923880 0.000000 -0.382683
v 1.000017 -0.382683 0.000000
v 0.671223 -0.653684 0.000000
v 1.000000 0.000000 0.000000
v 0.923880 0.000000 0.382684
v 0.707107 0.000000 0.707107
v 0.653282 -0.382683 0.653282
v 0.500000 -0.653684 0.500000
v 0.000000 -0.899999 0.000000
v 0.382683 0.000000 0.923880
v 0.000000 -0.382683 0.999998
v 0.000000 -0.653684 0.671224
v -0.000000 0.000000 1.000000
v -0.382684 0.000000 0.923880
v -0.707107 0.000000 0.707107
v -0.653281 -0.382683 0.653282
v -0.500000 -0.653684 0.500000
v -0.923880 0.000000 0.382684
v -1.000007 -0.382683 0.000000
v -0.671223 -0.653684 0.000000
v -1.000000 0.000000 0.000000
v -0.923879 0.000000 -0.382683
v -0.707106 0.000000 -0.707106
v -0.653281 -0.382683 -0.653281
v -0.500000 -0.653684 -0.500000
v -0.382683 0.000000 -0.923879
v 0.000000 -0.000001 -1.000000
v 0.382683 -0.000001 -0.923880
v 0.707107 -0.000001 -0.707107
v 0.923880 -0.000001 -0.382684
v 1.000000 -0.000001 0.000000
v 0.923880 -0.000001 0.382684
v 0.707107 -0.000001 0.707107
v 0.382683 -0.000001 0.923880
v 0.000000 -0.000001 1.000000
v -0.382683 -0.000001 0.923880
v -0.707107 -0.000001 0.707107
v -0.923880 -0.000001 0.382684
v -1.000000 -0.000001 0.000000
v -0.923880 -0.000001 -0.382684
v -0.707107 -0.000001 -0.707107
v -0.382683 -0.000001 -0.923880
vt 0.569289 0.770564
vt 0.695096 0.857307
vt 0.584673 0.875149
vt 0.886985 0.437644
vt 0.740922 0.479348
vt 0.763014 0.320041
vt 0.541516 0.760272
vt 0.541516 0.889221
vt 0.425824 0.849382
vt 0.563887 0.658619
vt 0.670489 0.652417
vt 0.602098 0.428024
vt 0.563887 0.290547
vt 0.769316 0.668939
vt 0.781467 0.819766
vt 0.569289 0.556358
vt 0.695096 0.491635
vt 0.623234 0.156366
vt 0.000000 0.865895
vt 0.117445 0.957616
vt 0.005726 0.966517
vt 0.769297 0.114662
vt 0.204937 0.774038
vt 0.204937 0.922912
vt 0.002977 0.754044
vt 0.110780 0.758417
vt 0.014203 0.647993
vt 0.141691 0.585634
vt 0.207132 0.839744
vt 0.324387 0.930245
vt 0.213381 0.944376
vt 0.908122 0.165986
vt 0.425824 0.771245
vt 0.324387 0.595522
vt 0.425824 0.563887
vt 0.204937 0.727641
vt 0.314391 0.725210
vt 0.946333 0.303462
vt 0.386689 0.771245
vt 0.386689 0.972580
vt 0.324387 0.834952
vt 0.207132 0.625136
vt 0.324387 0.563887
vt 0.782832 0.753918
vt 0.897477 0.845512
vt 0.786717 0.858686
vt 0.946333 0.100475
vt 0.767550 0.000000
vt 0.781467 0.641808
vt 0.891269 0.640306
vt 0.987953 0.479348
vt 0.987953 0.680184
vt 0.926880 0.541983
vt 0.782832 0.539423
vt 0.897477 0.479348
vt 0.551628 0.648971
vt 0.563886 0.563887
vt 0.563887 0.563887
vt 0.563887 0.338025
vt 0.225861 0.563887
vt 0.000000 0.225861
vt 0.907802 0.874689
vt 0.897477 0.769484
vt 0.897477 0.769484
vt 0.543480 0.666208
vt 0.547322 0.563887
vt 0.547322 0.563887
vt 0.987954 0.581791
vt 0.992153 0.479348
vt 0.992154 0.479348
vt 0.926880 0.479348
vt 0.907802 0.555527
vt 0.926880 0.479348
vt 0.543480 0.883150
vt 0.542131 0.778318
vt 0.542131 0.778318
vt 0.547323 0.755527
vt 0.551627 0.648971
vt 0.551628 0.867335
vt 0.563886 0.967371
vt 0.551627 0.867335
vt 0.897477 0.657409
vt 0.897477 0.657409
vt 0.926880 0.957008
vt 0.907802 0.874689
vt 0.543480 0.666208
vt 0.547323 0.964743
vt 0.543480 0.883150
vt 0.992154 0.798649
vt 0.987953 0.693915
vt 0.987954 0.693914
vt 0.907802 0.555527
vt 0.547323 0.755527
vt 0.987953 0.581791
vt 1.000000 0.196733
vt 0.946333 0.117552
vt 1.000000 0.000000
vt 0.584673 0.479348
vt 0.781467 0.539892
vt 0.031970 0.563887
vt 0.987699 0.878921
vt 0.926880 0.803046
vt 0.987699 0.680184
vt 0.574110 0.087906
vt 0.792533 0.940162
vt 0.477171 0.563887
vt 0.513530 0.760272
vt 0.425824 0.760272
vt 0.607696 0.956452
vt 0.338025 0.000000
vt 0.441651 0.042923
vt 0.520963 0.122235
vt 0.563887 0.225861
vt 0.520963 0.441652
vt 0.441652 0.520964
vt 0.338025 0.563887
vt 0.122235 0.520964
vt 0.042923 0.441652
vt 0.000000 0.338026
vt 0.042923 0.122235
vt 0.122235 0.042923
vt 0.225861 0.000000
vt 0.563887 0.967371
vt 0.926880 0.957008
vt 0.547322 0.964743
vt 0.992153 0.798649
vn 0.8161 -0.1915 -0.5453
vn 0.3421 -0.9323 -0.1172
vn 0.3197 -0.7308 -0.6031
vn 0.9808 0.0000 -0.1951
vn 0.1172 -0.9323 0.3421
vn 0.7684 -0.5834 -0.2631
vn 0.8476 -0.2813 0.4499
vn -0.1172 -0.9323 0.3421
vn 0.5453 -0.1915 0.8161
vn 0.6026 -0.7311 0.3198
vn -0.3421 -0.9323 0.1172
vn 0.2631 -0.5834 0.7684
vn 0.1951 -0.0000 0.9808
vn -0.4499 -0.2813 0.8476
vn -0.1951 -0.0000 0.9808
vn -0.8161 -0.1915 0.5453
vn -0.3421 -0.9323 -0.1172
vn -0.3198 -0.7311 0.6026
vn -0.9808 0.0000 0.1951
vn -0.1172 -0.9323 -0.3421
vn -0.7684 -0.5834 0.2631
vn -0.8476 -0.2813 -0.4499
vn -0.9808 0.0000 -0.1951
vn -0.5453 -0.1915 -0.8161
vn -0.6026 -0.7311 -0.3198
vn -0.1951 -0.0010 -0.9808
vn 0.3421 -0.9323 0.1172
vn -0.2631 -0.5834 -0.7684
vn 0.4494 -0.2817 -0.8478
vn -0.5351 -0.2691 0.8008
vn 0.9808 0.0000 0.1951
vn 0.1951 -0.0010 -0.9808
vn 0.1172 -0.9323 -0.3421
vn 0.0000 1.0000 0.0000
vn 0.8092 -0.2300 -0.5407
vn 0.1941 -0.1002 -0.9759
vn 0.7296 -0.4795 0.4875
vn -0.5556 0.0000 -0.8315
vn -0.1840 -0.3331 0.9248
vn 0.4355 -0.6210 0.6517
vn 0.9320 -0.3115 -0.1854
vn 0.5518 -0.1163 -0.8258
vn -0.1951 -0.0137 -0.9807
vn -0.8315 0.0000 -0.5556
vn -0.7856 -0.3276 0.5249
vn 0.8607 -0.4795 0.1712
vn 0.1891 -0.2450 0.9509
vn -0.9803 0.0317 0.1950
vn 0.8476 -0.2812 -0.4499
vn 0.2631 -0.5834 -0.7684
vn 0.6026 -0.7311 -0.3198
vn 0.8161 -0.1915 0.5453
vn 0.4499 -0.2813 0.8476
vn 0.7684 -0.5834 0.2631
vn 0.3198 -0.7311 0.6026
vn -0.5453 -0.1915 0.8161
vn -0.8476 -0.2813 0.4499
vn -0.2631 -0.5834 0.7684
vn -0.6026 -0.7311 0.3198
vn -0.8161 -0.1915 -0.5453
vn -0.4494 -0.2817 -0.8478
vn -0.7684 -0.5834 -0.2631
vn -0.3197 -0.7308 -0.6031
vn 0.5453 -0.1915 -0.8161
vn -0.5359 -0.2636 0.8021
vn 0.8315 0.0000 -0.5556
vn 0.1951 0.0137 -0.9807
vn 0.7186 -0.5030 0.4802
vn -0.1891 -0.2450 0.9509
vn 0.4576 -0.5670 0.6849
vn 0.9767 -0.0911 -0.1943
vn 0.5537 -0.0817 -0.8287
vn -0.1951 0.0000 -0.9808
vn -0.8315 0.0000 0.5556
vn 0.9641 -0.1837 0.1918
vn 0.1521 -0.6259 0.7649
vn -0.9750 -0.1086 0.1939
usemtl None
s off
f 8/1/1 6/2/1 5/3/1
f 7/4/2 10/5/2 16/6/2
f 6/7/3 4/8/3 3/9/3
f 8/1/4 11/10/4 9/11/4
f 15/12/5 19/13/5 16/6/5
f 6/2/6 10/14/6 7/15/6
f 12/16/7 14/17/7 9/11/7
f 19/13/8 24/18/8 16/6/8
f 17/19/9 14/20/9 13/21/9
f 14/17/10 10/14/10 9/11/10
f 24/18/11 27/22/11 16/6/11
f 14/20/12 19/23/12 15/24/12
f 17/19/13 20/25/13 18/26/13
f 21/27/14 23/28/14 18/26/14
f 20/25/15 21/27/15 18/26/15
f 25/29/16 23/30/16 22/31/16
f 27/22/17 32/32/17 16/6/17
f 23/33/18 19/34/18 18/35/18
f 25/29/19 28/36/19 26/37/19
f 32/32/20 4/38/20 16/6/20
f 23/39/21 27/40/21 24/41/21
f 29/42/22 31/43/22 26/37/22
f 28/36/23 29/42/23 26/37/23
f 33/44/24 31/45/24 30/46/24
f 31/47/25 27/22/25 26/48/25
f 33/44/26 1/49/26 3/50/26
f 10/5/27 15/12/27 16/6/27
f 31/51/28 4/52/28 32/53/28
f 2/54/29 6/55/29 3/50/29
f 2/56/30 36/57/30 5/58/30
f 11/10/31 12/16/31 9/11/31
f 1/49/32 2/54/32 3/50/32
f 4/38/33 7/4/33 16/6/33
f 46/59/34 42/60/34 38/61/34
f 22/62/35 45/63/35 25/64/35
f 20/65/36 43/66/36 21/67/36
f 11/68/23 39/69/23 12/70/23
f 30/71/37 47/72/37 48/73/37
f 13/74/38 41/75/38 17/76/38
f 1/77/39 35/78/39 2/56/39
f 33/79/40 48/80/40 49/81/40
f 28/82/41 45/63/41 46/83/41
f 21/84/42 44/85/42 22/62/42
f 17/76/43 42/86/43 20/65/43
f 12/87/44 40/88/44 13/74/44
f 5/89/45 37/90/45 8/91/45
f 29/92/46 46/83/46 47/72/46
f 33/79/47 34/93/47 1/77/47
f 8/91/48 38/94/48 11/68/48
f 8/1/49 9/11/49 6/2/49
f 6/95/50 7/96/50 4/97/50
f 6/2/51 9/11/51 10/14/51
f 12/16/52 13/98/52 14/17/52
f 17/19/53 18/26/53 14/20/53
f 14/17/54 15/99/54 10/14/54
f 14/20/55 18/26/55 19/23/55
f 21/27/56 22/100/56 23/28/56
f 25/29/57 26/37/57 23/30/57
f 23/101/58 24/102/58 19/103/58
f 23/104/59 26/48/59 27/22/59
f 29/105/60 30/46/60 31/45/60
f 33/44/61 3/50/61 31/45/61
f 31/47/62 32/32/62 27/22/62
f 31/106/63 3/107/63 4/108/63
f 2/109/64 5/3/64 6/2/64
f 2/56/65 35/78/65 36/57/65
f 34/110/34 49/111/34 48/112/34
f 48/112/34 47/113/34 46/59/34
f 46/59/34 45/114/34 44/115/34
f 44/115/34 43/116/34 42/60/34
f 42/60/34 41/117/34 40/118/34
f 40/118/34 39/119/34 38/61/34
f 38/61/34 37/120/34 36/121/34
f 36/121/34 35/122/34 34/110/34
f 34/110/34 48/112/34 46/59/34
f 46/59/34 44/115/34 42/60/34
f 42/60/34 40/118/34 38/61/34
f 38/61/34 36/121/34 34/110/34
f 34/110/34 46/59/34 38/61/34
f 22/62/66 44/85/66 45/63/66
f 20/65/67 42/86/67 43/66/67
f 11/68/23 38/94/23 39/69/23
f 30/71/68 29/92/68 47/72/68
f 13/74/38 40/88/38 41/75/38
f 1/77/69 34/93/69 35/78/69
f 33/79/70 30/123/70 48/80/70
f 28/82/71 25/64/71 45/63/71
f 21/84/72 43/124/72 44/85/72
f 17/76/73 41/75/73 42/86/73
f 12/87/44 39/125/44 40/88/44
f 5/89/74 36/126/74 37/90/74
f 29/92/75 28/82/75 46/83/75
f 33/79/76 49/81/76 34/93/76
f 8/91/77 37/90/77 38/94/77
