# Blender v2.92.0 OBJ File: 'player.blend'
# www.blender.org
mtllib player.mtl
o 円柱
v 0.000000 -0.699893 -1.000000
v 0.000000 0.699824 -1.000000
v 1.000000 -0.699893 -0.000000
v 1.000000 0.699824 -0.000000
v -0.000000 -0.699893 1.000000
v -0.000000 0.699824 1.000000
v -0.195091 -0.699893 0.980785
v -0.195091 0.699824 0.980785
v -0.382684 -0.699893 0.923879
v -0.382684 0.699824 0.923879
v -0.555571 -0.699893 0.831469
v -0.555571 0.699824 0.831469
v -0.707107 -0.699893 0.707106
v -0.707107 0.699824 0.707106
v -0.831470 -0.699893 0.555570
v -0.831470 0.699824 0.555570
v -0.923880 -0.699893 0.382683
v -0.923880 0.699824 0.382683
v -0.923879 -0.699893 -0.382684
v -0.923879 0.699824 -0.382684
v -0.831469 -0.699893 -0.555571
v -0.831469 0.699824 -0.555571
v -0.707106 -0.699893 -0.707108
v -0.707106 0.699824 -0.707108
v -0.555569 -0.699893 -0.831470
v -0.555569 0.699824 -0.831470
v -0.382682 -0.699893 -0.923880
v -0.382682 0.699824 -0.923880
v -0.195089 -0.699893 -0.980786
v -0.195089 0.699824 -0.980786
vt 0.000000 0.406536
vt 0.333333 0.565296
vt 0.000000 0.565296
vt 1.000000 0.743322
vt 0.666667 0.406536
vt 1.000000 0.406536
vt 0.333333 0.785502
vt 0.666667 0.746685
vt 0.666667 0.785502
vt 0.333333 0.746685
vt 0.666667 0.703555
vt 0.333333 0.703555
vt 0.666667 0.657767
vt 0.333333 0.657767
vt 0.666667 0.611083
vt 0.333333 0.611083
vt 0.666667 0.565296
vt 0.333333 0.565296
vt 0.666667 0.522165
vt 0.333333 0.406536
vt 0.333333 0.522165
vt 0.000000 0.818513
vt 0.333333 0.785502
vt 0.333333 0.818513
vt 0.000000 0.785502
vt 0.333333 0.746685
vt 0.000000 0.746685
vt 0.333333 0.703555
vt 0.000000 0.703555
vt 0.333333 0.657767
vt 0.411112 0.191684
vt 0.644679 0.000000
vt 0.813072 0.069751
vt 0.000000 0.657767
vt 0.333333 0.611083
vt 0.000000 0.611083
vt 0.000000 0.168393
vt 0.018128 0.077259
vt 0.284603 0.401960
vt 0.333333 0.406536
vt 0.666667 0.743322
vt 0.666667 0.406536
vt 0.813072 0.406536
vt 0.476287 0.406536
vt 0.446671 0.370449
vt 0.424664 0.329277
vt 0.411112 0.284603
vt 0.406536 0.238144
vt 0.424664 0.147010
vt 0.553546 0.018128
vt 0.598220 0.004576
vt 0.691139 0.004576
vt 0.735813 0.018128
vt 0.776985 0.040134
vt 0.040135 0.036087
vt 0.069750 0.000000
vt 0.406536 0.000000
vt 0.406536 0.336786
vt 0.370449 0.366402
vt 0.329277 0.388409
vt 0.238143 0.406536
vt 0.191684 0.401960
vt 0.147010 0.388409
vt 0.018128 0.259526
vt 0.004576 0.214852
vt 0.004576 0.121933
vn 0.7071 0.0000 -0.7071
vn 0.7071 0.0000 0.7071
vn -0.0980 0.0000 0.9952
vn -0.2903 0.0000 0.9569
vn -0.4714 0.0000 0.8819
vn -0.6344 0.0000 0.7730
vn -0.7730 0.0000 0.6344
vn -0.8819 0.0000 0.4714
vn -1.0000 0.0000 -0.0000
vn -0.8819 0.0000 -0.4714
vn -0.7730 0.0000 -0.6344
vn -0.6344 0.0000 -0.7730
vn -0.4714 0.0000 -0.8819
vn 0.0000 1.0000 0.0000
vn -0.2903 0.0000 -0.9569
vn -0.0980 0.0000 -0.9952
vn 0.0000 -1.0000 0.0000
usemtl None
s off
f 4/1/1 1/2/1 2/3/1
f 6/4/2 3/5/2 4/6/2
f 6/7/3 7/8/3 5/9/3
f 8/10/4 9/11/4 7/8/4
f 10/12/5 11/13/5 9/11/5
f 12/14/6 13/15/6 11/13/6
f 14/16/7 15/17/7 13/15/7
f 16/18/8 17/19/8 15/17/8
f 20/20/9 17/19/9 18/21/9
f 20/22/10 21/23/10 19/24/10
f 22/25/11 23/26/11 21/23/11
f 24/27/12 25/28/12 23/26/12
f 26/29/13 27/30/13 25/28/13
f 22/31/14 14/32/14 6/33/14
f 28/34/15 29/35/15 27/30/15
f 30/36/16 1/2/16 29/35/16
f 23/37/17 27/38/17 11/39/17
f 4/1/1 3/40/1 1/2/1
f 6/4/2 5/41/2 3/5/2
f 6/7/3 8/10/3 7/8/3
f 8/10/4 10/12/4 9/11/4
f 10/12/5 12/14/5 11/13/5
f 12/14/6 14/16/6 13/15/6
f 14/16/7 16/18/7 15/17/7
f 16/18/8 18/21/8 17/19/8
f 20/20/9 19/42/9 17/19/9
f 20/22/10 22/25/10 21/23/10
f 22/25/11 24/27/11 23/26/11
f 24/27/12 26/29/12 25/28/12
f 26/29/13 28/34/13 27/30/13
f 4/43/14 2/44/14 30/45/14
f 30/45/14 28/46/14 26/47/14
f 26/47/14 24/48/14 30/45/14
f 24/48/14 22/31/14 30/45/14
f 22/31/14 20/49/14 14/32/14
f 20/49/14 18/50/14 14/32/14
f 18/50/14 16/51/14 14/32/14
f 14/32/14 12/52/14 10/53/14
f 10/53/14 8/54/14 6/33/14
f 6/33/14 4/43/14 30/45/14
f 14/32/14 10/53/14 6/33/14
f 6/33/14 30/45/14 22/31/14
f 28/34/15 30/36/15 29/35/15
f 30/36/16 2/3/16 1/2/16
f 29/55/17 1/56/17 3/57/17
f 3/57/17 5/58/17 7/59/17
f 7/59/17 9/60/17 11/39/17
f 11/39/17 13/61/17 15/62/17
f 15/62/17 17/63/17 19/64/17
f 19/64/17 21/65/17 23/37/17
f 23/37/17 25/66/17 27/38/17
f 27/38/17 29/55/17 11/39/17
f 29/55/17 3/57/17 11/39/17
f 3/57/17 7/59/17 11/39/17
f 11/39/17 15/62/17 19/64/17
f 19/64/17 23/37/17 11/39/17
